<svg width="24" height="24" viewBox="0 0 24 24" fill="none" xmlns="http://www.w3.org/2000/svg">
<path d="M2.37988 14.6526C2.52725 16.8842 3.39041 18.9474 4.84304 20.6316L6.56935 18.9053C5.53778 17.7053 4.9483 16.2316 4.80093 14.6526H2.37988Z" fill="black"/>
<path d="M2.37988 13.3684H4.80093C4.92725 11.7473 5.57988 10.2736 6.56935 9.11573L4.84304 7.41047C3.43251 9.01047 2.52725 11.0947 2.37988 13.3684Z" fill="black"/>
<path d="M11.7483 4C9.47461 4.14737 7.3904 5.05263 5.7904 6.48421L7.49567 8.18947C8.65356 7.2 10.1272 6.56842 11.7483 6.42105V4Z" fill="black"/>
<path d="M18.1693 5.91579C18.1904 5.89474 18.2115 5.89474 18.2325 5.87368C16.7378 4.8 14.9693 4.12632 13.0325 4V6.42105C14.1693 6.50526 15.243 6.86316 16.1693 7.41053C16.7588 6.96842 17.4325 6.46316 18.1693 5.91579Z" fill="black"/>
<path d="M18.1904 18.9053L19.9167 20.6105C21.3904 18.9474 22.2536 16.8632 22.3799 14.6526H19.9588C19.8115 16.2316 19.222 17.7053 18.1904 18.9053Z" fill="black"/>
<path d="M19.9588 13.3685H22.3799C22.2536 11.4316 21.5799 9.66319 20.5273 8.16846C20.5062 8.18951 20.5062 8.21056 20.4851 8.23162C19.9378 8.96846 19.4115 9.64214 18.9694 10.2316C19.5167 11.1579 19.8536 12.2316 19.9588 13.3685Z" fill="black"/>
<path d="M19.4536 7.43157C19.7062 7.09473 19.2851 6.67367 18.9483 6.92631C17.0746 8.33683 14.4009 10.3579 12.9694 11.4947C12.7799 11.4526 12.5904 11.4316 12.3799 11.4316C10.9483 11.4316 9.79041 12.5895 9.79041 14.021C9.79041 15.4526 10.9483 16.6105 12.3799 16.6105C13.8115 16.6105 14.9694 15.4526 14.9694 14.021C14.9694 13.8105 14.9483 13.621 14.9062 13.4316C16.0009 12 18.043 9.30525 19.4536 7.43157Z" fill="black"/>
</svg>
