<svg width="24" height="24" viewBox="0 0 24 24" fill="none" xmlns="http://www.w3.org/2000/svg">
<path d="M2 8.76006V10.4111C2.23411 12.528 6.38749 13.8152 10.5452 13.8152C12.9323 13.8152 19.0904 12.8819 19.0904 10.4111V8.76006C18.6504 9.11867 18.1254 9.44932 17.5208 9.74555C15.644 10.6651 13.1666 11.1715 10.5452 11.1715C7.92383 11.1715 5.4465 10.6651 3.56956 9.74555C2.96495 9.44937 2.44 9.11867 2 8.76006Z" fill="black"/>
<path d="M5.09673 14.6935C5.41846 15.3325 6.14485 15.9537 7.19505 16.4683C8.85347 17.2809 11.0766 17.7284 13.4548 17.7284C15.833 17.7284 18.0562 17.2809 19.7146 16.4683C21.167 15.7566 22 14.8411 22 13.9565C22 13.2071 21.411 12.4437 20.3555 11.7958C19.8439 12.7406 18.8044 13.576 17.324 14.2122C15.4768 15.0059 13.0693 15.4431 10.5452 15.4431C8.59278 15.4431 6.70629 15.1806 5.09673 14.6935Z" fill="black"/>
<path d="M4.90965 16.9448V18.5959C5.1353 21.5049 11.0678 22 13.4549 22C15.842 22 22.0001 21.5049 22.0001 18.5959V16.9448C21.5601 17.3034 21.0351 17.6341 20.4305 17.9303C18.5536 18.8499 16.0763 19.3563 13.4549 19.3563C10.8335 19.3563 8.35615 18.8499 6.47921 17.9303C5.87461 17.6341 5.3497 17.3035 4.90965 16.9448Z" fill="black"/>
<path d="M16.8049 3.26015C15.1465 2.44753 12.9234 2 10.5452 2C8.167 2 5.94387 2.44753 4.28545 3.26015C2.83302 3.97179 2 4.88724 2 5.77184C2 6.65645 2.83302 7.57195 4.2854 8.28358C5.94382 9.09621 8.16695 9.54374 10.5452 9.54374C12.9234 9.54374 15.1465 9.09621 16.8049 8.28358C18.2574 7.57195 19.0903 6.65645 19.0903 5.77184C19.0904 4.88729 18.2574 3.97179 16.8049 3.26015ZM10.974 7.92645V8.62131H10.0627V7.96833C9.62928 7.93408 9.2018 7.81705 8.82958 7.59026L9.16086 6.83412C9.52888 7.05982 9.95572 7.20115 10.3898 7.20115C10.8185 7.20115 11.1066 7.01942 11.1066 6.74892C11.1066 6.56699 11.0158 6.36853 10.3575 6.15031C9.65819 5.9261 8.94091 5.60031 8.94091 4.88917C8.94091 4.31808 9.39671 3.87347 10.1172 3.72406V3.04872H11.0207V3.67773C11.3931 3.70901 11.7526 3.81208 12.0827 3.98644L11.7378 4.73075C11.3983 4.55298 11.0344 4.43704 10.6468 4.43704C10.193 4.43704 10.0314 4.6312 10.0314 4.81288C10.0314 5.00951 10.1521 5.13808 10.8675 5.38006C11.4895 5.58744 12.2047 5.9257 12.2047 6.70437C12.2048 7.29442 11.7173 7.77051 10.974 7.92645Z" fill="black"/>
</svg>
