<svg width="24" height="24" viewBox="0 0 24 24" fill="none" xmlns="http://www.w3.org/2000/svg">
<path d="M12.0933 9.50244C12.0622 9.50133 12.0313 9.5 12 9.5C10.6193 9.5 9.5 10.6193 9.5 12C9.5 13.3807 10.6193 14.5 12 14.5C13.3807 14.5 14.5 13.3807 14.5 12C14.5 11.9687 14.4989 11.9376 14.4973 11.9067L14.002 12.4022C13.6811 12.7231 13.254 12.8998 12.8 12.8998C12.3464 12.8998 11.9196 12.7231 11.5978 12.4018C10.9351 11.7393 10.9351 10.6609 11.5978 9.998L12.0933 9.50244Z" fill="black"/>
<path d="M12.3049 10.7049C12.0318 10.9782 12.0318 11.4216 12.3049 11.6949C12.4413 11.8316 12.6209 11.8998 12.8 11.8998C12.9796 11.8998 13.1582 11.8313 13.2953 11.6949L17.1018 7.88868L18.674 7.9589C18.8891 7.96824 19.0331 7.91268 19.1858 7.76023L21.7331 5.2129C22.0284 4.91757 21.9458 4.70535 21.5287 4.68668L19.4084 4.59201L19.3133 2.47179C19.2947 2.05468 19.0822 1.97224 18.7871 2.26757L16.2398 4.81468C16.0871 4.9669 16.0313 5.11112 16.0407 5.32646L16.1111 6.89868L12.3049 10.7049Z" fill="black"/>
<path d="M21.1789 8.02956L19.7836 9.42489C20.0524 10.2351 20.2 11.1004 20.2 12C20.2 16.5218 16.5211 20.2 12 20.2C7.47867 20.2 3.8 16.5216 3.8 12C3.8 7.47844 7.47844 3.8 12 3.8C12.8996 3.8 13.7647 3.94733 14.5749 4.21667L15.9704 2.82111C14.7536 2.29356 13.4111 2 12 2C6.47733 2 2 6.47733 2 12C2 17.5227 6.47733 22 12 22C17.5227 22 22 17.5227 22 12C22 10.5889 21.7067 9.24667 21.1789 8.02956Z" fill="black"/>
<path d="M14.4438 6.30358C13.6936 5.98113 12.8682 5.80002 12 5.80002C8.57578 5.80002 5.8 8.57602 5.8 12C5.8 15.424 8.57578 18.2 12 18.2C15.424 18.2 18.2 15.424 18.2 12C18.2 11.1316 18.0189 10.3065 17.696 9.55624L16.2773 10.9751C16.3564 11.3042 16.3996 11.6469 16.3996 12C16.3996 14.4262 14.4258 16.4 11.9996 16.4C9.57334 16.4 7.6 14.4262 7.6 12C7.6 9.5738 9.57378 7.60002 12 7.60002C12.3531 7.60002 12.696 7.64291 13.0247 7.72224L14.4438 6.30358Z" fill="black"/>
</svg>
