<svg width="24" height="24" viewBox="0 0 24 24" fill="none" xmlns="http://www.w3.org/2000/svg">
<path d="M17.8726 7.00018L12.6129 6.99751C12.6026 6.99752 12.5927 7.00162 12.5854 7.0089C12.5781 7.01618 12.574 7.02606 12.574 7.03635L12.5767 17.7644C12.5767 17.7707 12.5788 17.7769 12.5826 17.7818C12.5865 17.7868 12.592 17.7902 12.5981 17.7917C13.4394 17.9772 14.1868 18.4569 14.706 19.1444C15.1287 19.6957 15.3782 20.3602 15.4227 21.0535C15.4269 21.1106 15.4314 21.1678 15.4361 21.225C15.4429 21.2814 15.4383 21.3386 15.4227 21.3933C15.3966 21.4743 15.3432 21.5436 15.2716 21.5896C15.2 21.6355 15.1147 21.6552 15.0302 21.6452H8.74468C8.42376 21.6452 8.27163 21.4889 8.28828 21.1763C8.30466 20.6736 8.42787 20.1801 8.64971 19.7286C8.87154 19.2772 9.18693 18.8782 9.57489 18.558C10.0174 18.1789 10.5479 17.9168 11.1178 17.7957C11.1255 17.794 11.1324 17.7897 11.1374 17.7835C11.1423 17.7774 11.1451 17.7697 11.1451 17.7618V7.0272C11.145 7.01941 11.1419 7.01195 11.1364 7.00644C11.1308 7.00093 11.1234 6.9978 11.1156 6.99773H5.87233C5.86649 6.99781 5.86075 6.99933 5.85563 7.00216C5.85052 7.00498 5.84617 7.00903 5.84299 7.01393C5.83981 7.01884 5.83789 7.02445 5.83739 7.03028C5.8369 7.0361 5.83785 7.04196 5.84016 7.04733C6.76486 9.12418 7.68541 11.1914 8.60179 13.2489C8.62121 13.2895 8.63182 13.3338 8.6329 13.3789C8.63307 13.3921 8.63848 13.4048 8.64794 13.414C8.65739 13.4233 8.67014 13.4285 8.68339 13.4284L8.97587 13.4307C8.97882 13.4307 8.98175 13.4313 8.98446 13.4324C8.98718 13.4336 8.98963 13.4353 8.99167 13.4374C8.99372 13.4395 8.99531 13.442 8.99635 13.4448C8.99739 13.4475 8.99787 13.4505 8.99774 13.4534C8.99461 13.7353 8.93585 14.0137 8.82482 14.2728C8.71379 14.5319 8.55268 14.7665 8.35074 14.9631C8.14881 15.1597 7.91002 15.3146 7.64809 15.4187C7.38616 15.5228 7.10624 15.5741 6.82442 15.5697C5.89793 15.5712 4.97129 15.5717 4.04448 15.5711C3.66894 15.575 3.29869 15.4824 2.96915 15.3023C2.63671 15.1202 2.35872 14.8529 2.16369 14.5279C1.96866 14.2029 1.86363 13.8318 1.85938 13.4528C1.85937 13.4469 1.86167 13.4413 1.86577 13.4372C1.86987 13.433 1.87545 13.4306 1.88129 13.4305L2.17422 13.4287C2.18082 13.4287 2.18736 13.4274 2.19346 13.4249C2.19956 13.4223 2.20509 13.4186 2.20975 13.4139C2.2144 13.4092 2.21808 13.4037 2.22057 13.3976C2.22306 13.3914 2.22432 13.3849 2.22426 13.3783C2.22477 13.3331 2.23513 13.2886 2.25462 13.2479C3.19334 11.1475 4.13025 9.04175 5.06536 6.93062C5.06864 6.92333 5.06924 6.91511 5.06703 6.90742C5.06482 6.89973 5.05997 6.89307 5.05332 6.88862C4.9 6.7913 4.7884 6.64039 4.74025 6.46529C4.69636 6.30205 4.71285 6.12846 4.78669 5.9764C4.85675 5.8199 4.98459 5.69653 5.14349 5.63209C5.29391 5.58214 5.45231 5.56065 5.6106 5.56872H11.1156C11.1234 5.56865 11.1308 5.56551 11.1363 5.55999C11.1418 5.55447 11.145 5.54701 11.145 5.53921V4.69388C11.145 4.68371 11.1424 4.67372 11.1375 4.66482C11.1325 4.65592 11.1255 4.6484 11.1169 4.64294C10.8591 4.4861 10.6581 4.25113 10.5431 3.97219C10.4418 3.72822 10.4097 3.46109 10.4502 3.20006C10.4903 2.95086 10.5956 2.71669 10.7554 2.52133C10.9153 2.32597 11.1239 2.17635 11.3603 2.08767C11.5684 2.01193 11.7911 1.98473 12.0114 2.00816C12.2168 2.02646 12.4154 2.09083 12.5926 2.19646C12.7697 2.3021 12.9207 2.44629 13.0345 2.61833C13.1493 2.77998 13.2272 2.96491 13.2627 3.16002C13.2978 3.34985 13.2934 3.5449 13.2497 3.73295C13.1614 4.10697 12.932 4.4324 12.6094 4.6413C12.5985 4.64893 12.5896 4.65909 12.5834 4.67091C12.5773 4.68272 12.5741 4.69585 12.5741 4.70917V5.5389C12.5741 5.5467 12.5773 5.55416 12.5828 5.55968C12.5883 5.5652 12.5957 5.56834 12.6035 5.56841H17.9142C18.0827 5.56406 18.2513 5.56823 18.4193 5.58089C18.5391 5.60481 18.651 5.65828 18.7449 5.73645C18.8349 5.81214 18.9037 5.90982 18.9449 6.02C19.0103 6.17363 19.0187 6.34561 18.9685 6.50488C18.9183 6.66416 18.8128 6.80024 18.6711 6.88858C18.6626 6.89527 18.6565 6.90463 18.6539 6.91515C18.6514 6.92568 18.6524 6.93678 18.6568 6.94667C19.592 9.04642 20.527 11.1473 21.4618 13.2492C21.4799 13.2844 21.4914 13.3227 21.4957 13.3621C21.4975 13.3816 21.5066 13.3996 21.5212 13.4125C21.5358 13.4255 21.5548 13.4324 21.5743 13.4318L21.8382 13.4381C21.8445 13.4388 21.8502 13.442 21.8541 13.4469C21.8581 13.4518 21.8599 13.4581 21.8592 13.4644C21.8496 14.0316 21.6154 14.5718 21.2079 14.9666C20.8005 15.3613 20.2531 15.5783 19.6859 15.57C18.7555 15.5712 17.8252 15.5719 16.8948 15.5723C16.4996 15.5746 16.1117 15.466 15.7753 15.2588C15.4615 15.0761 15.1995 14.8164 15.0142 14.5042C14.8289 14.192 14.7264 13.8376 14.7164 13.4747C14.716 13.4687 14.7169 13.4627 14.7189 13.4571C14.721 13.4515 14.7241 13.4463 14.7282 13.442C14.7323 13.4376 14.7373 13.4341 14.7428 13.4318C14.7483 13.4294 14.7542 13.4282 14.7602 13.4282H15.0375C15.0505 13.4282 15.0628 13.423 15.072 13.4138C15.0811 13.4047 15.0862 13.3923 15.0862 13.3793C15.087 13.3309 15.0982 13.2832 15.1192 13.2396C16.038 11.1859 16.9603 9.11307 17.8862 7.02102C17.8872 7.01876 17.8876 7.01629 17.8874 7.01383C17.8872 7.01137 17.8864 7.009 17.8851 7.00693C17.8837 7.00486 17.8819 7.00316 17.8797 7.00198C17.8775 7.00081 17.8751 7.00018 17.8726 7.00018ZM7.8549 13.4309C7.85987 13.4309 7.86477 13.4296 7.86913 13.4273C7.8735 13.4249 7.87721 13.4215 7.87991 13.4173C7.88262 13.4131 7.88424 13.4083 7.88463 13.4034C7.88502 13.3984 7.88417 13.3934 7.88215 13.3889L5.4514 7.92226C5.43682 7.88919 5.42225 7.88905 5.40767 7.92182L2.97657 13.3929C2.97492 13.3967 2.97423 13.4009 2.97457 13.405C2.97491 13.4092 2.97627 13.4132 2.97853 13.4166C2.98078 13.4201 2.98386 13.423 2.9875 13.425C2.99114 13.427 2.99521 13.4281 2.99937 13.4282L7.8549 13.4309ZM18.2701 7.91031L15.8408 13.3867C15.8388 13.3912 15.838 13.3961 15.8384 13.401C15.8388 13.406 15.8405 13.4107 15.8432 13.4148C15.8459 13.4189 15.8496 13.4223 15.8539 13.4247C15.8582 13.427 15.8631 13.4282 15.868 13.4282H20.7236C20.7275 13.4282 20.7312 13.4273 20.7346 13.4254C20.7379 13.4236 20.7408 13.421 20.7428 13.4178C20.7449 13.4146 20.7462 13.411 20.7465 13.4072C20.7468 13.4034 20.7462 13.3995 20.7446 13.3961L18.3072 7.91031C18.2947 7.88237 18.2824 7.88237 18.2701 7.91031Z" fill="black"/>
</svg>
