<svg width="24" height="24" viewBox="0 0 24 24" fill="none" xmlns="http://www.w3.org/2000/svg">
<path d="M4.16406 2V22H15.792V18.7442C15.7943 18.5176 16.0051 18.2816 16.2571 18.2791H19.5129V2H4.16406ZM6.25709 5.02326H8.11755V6.88372H6.25709V5.02326ZM10.2106 5.48837H16.9548C17.2116 5.48837 17.4199 5.6966 17.4199 5.95349C17.4199 6.21037 17.2116 6.4186 16.9548 6.4186H10.2106C9.95369 6.4186 9.74546 6.21037 9.74546 5.95349C9.74546 5.6966 9.95369 5.48837 10.2106 5.48837ZM6.25709 8.74419H8.11755V10.6047H6.25709V8.74419ZM10.2106 9.2093H16.9548C17.2116 9.2093 17.4199 9.41754 17.4199 9.67442C17.4199 9.9313 17.2116 10.1395 16.9548 10.1395H10.2106C9.95369 10.1395 9.74546 9.9313 9.74546 9.67442C9.74546 9.41754 9.95369 9.2093 10.2106 9.2093ZM6.25709 12.4651H8.11755V14.3256H6.25709V12.4651ZM10.2106 12.9302H16.9548C17.2116 12.9302 17.4199 13.1385 17.4199 13.3953C17.4199 13.6522 17.2116 13.8605 16.9548 13.8605H10.2106C9.95369 13.8605 9.74546 13.6522 9.74546 13.3953C9.74546 13.1385 9.95369 12.9302 10.2106 12.9302ZM6.25709 16.186H8.11755V18.0465H6.25709V16.186ZM10.2106 16.6512H16.9548C17.2116 16.6512 17.4199 16.8594 17.4199 17.1163C17.4199 17.3732 17.2116 17.5814 16.9548 17.5814H10.2106C9.95369 17.5814 9.74546 17.3732 9.74546 17.1163C9.74546 16.8594 9.95369 16.6512 10.2106 16.6512ZM16.7222 19.2093V21.5349L19.0478 19.2093H16.7222Z" fill="black"/>
</svg>
