<svg width="24" height="24" viewBox="0 0 24 24" fill="none" xmlns="http://www.w3.org/2000/svg">
<path d="M5.95278 2L5.5161 3.3342L5.95278 4.66844V10.9687H4V19.7831C4 21.0113 5.20537 21.9999 6.7028 21.9999C8.20023 21.9999 9.40645 21.0113 9.40645 19.7831V10.9687H7.45368V4.66844L7.89035 3.3342L7.45368 2H5.95278Z" fill="black"/>
<path d="M14.0417 2C14.0388 2.00019 14.036 2.00045 14.0331 2.00077C13.3988 2.00077 12.79 2.25017 12.337 2.69317C12.3299 2.69821 12.3231 2.70579 12.3168 2.71108C12.311 2.71612 12.3055 2.72368 12.3005 2.72885C11.8562 3.18211 11.6065 3.79207 11.6065 4.42734V6.98286C11.6063 6.98664 11.6063 6.9942 11.6065 6.99785C11.6065 7.64124 11.8618 8.25927 12.3168 8.71422L13.7948 10.1923V20.0184C13.795 20.0234 13.7955 20.032 13.7963 20.0386C13.8035 20.7381 14.1801 21.3844 14.7869 21.7347C15.3995 22.0884 16.1545 22.0884 16.7672 21.7347C17.3714 21.3859 17.7467 20.7434 17.7569 20.0471C17.7584 20.0383 17.7592 20.0281 17.7593 20.0184V10.1923L19.2319 8.71964C19.2319 8.71964 19.2356 8.71712 19.2373 8.7146C19.6923 8.25968 19.9476 7.64163 19.9476 6.99824V4.43653C19.9477 4.43401 19.9477 4.43146 19.9476 4.42768C19.9476 3.7937 19.6985 3.18528 19.256 2.73231L19.2505 2.72727C19.248 2.72475 19.2463 2.72221 19.2435 2.71843L19.2373 2.71339C19.2306 2.70583 19.2233 2.69992 19.2156 2.69324C18.7627 2.2514 18.1544 2.00311 17.521 2.00311C17.5143 2.00277 17.5074 2.00277 17.5008 2.00311C17.4015 2.01672 17.3203 2.10242 17.3214 2.20266V6.54513C17.3214 7.0974 17.0281 7.60732 16.5498 7.88345C16.0715 8.15958 15.4825 8.15958 15.0043 7.88345C14.526 7.60732 14.2326 7.0974 14.2326 6.54513V2.28647C14.2326 2.14993 14.1925 1.99388 14.0417 2.00235L14.0417 2Z" fill="black"/>
</svg>
