<svg width="24" height="24" viewBox="0 0 24 24" fill="none" xmlns="http://www.w3.org/2000/svg">
<path d="M8.79701 3.8656C8.52632 3.21172 7.81268 2.86369 7.13068 3.05001L4.03706 3.89372C3.42537 4.06246 3 4.61791 3 5.25069C3 13.948 10.052 21 18.7493 21C19.3821 21 19.9375 20.5746 20.1063 19.9629L20.95 16.8693C21.1363 16.1873 20.7883 15.4737 20.1344 15.203L16.7596 13.7968C16.1865 13.5578 15.5221 13.723 15.1319 14.2046L13.7116 15.9377C11.2367 14.7671 9.23293 12.7633 8.06228 10.2884L9.7954 8.87163C10.277 8.4779 10.4423 7.81699 10.2032 7.24397L8.79701 3.86911V3.8656Z" fill="black"/>
</svg>
