<svg width="24" height="24" viewBox="0 0 24 24" fill="none" xmlns="http://www.w3.org/2000/svg">
<path fill-rule="evenodd" clip-rule="evenodd" d="M3 10.2276C3 6.23589 6.23589 3 10.2276 3C14.2193 3 17.4551 6.23589 17.4551 10.2276C17.4551 11.9341 16.8637 13.5024 15.8746 14.7389L21 19.8643L19.8643 21L14.7389 15.8746C13.5024 16.8637 11.9341 17.4551 10.2276 17.4551C6.23589 17.4551 3 14.2193 3 10.2276ZM10.2276 4.60612C7.12293 4.60612 4.60612 7.12293 4.60612 10.2276C4.60612 13.3322 7.12293 15.849 10.2276 15.849C13.3322 15.849 15.849 13.3322 15.849 10.2276C15.849 7.12293 13.3322 4.60612 10.2276 4.60612Z" fill="black"/>
</svg>
