<svg width="24" height="24" viewBox="0 0 24 24" fill="none" xmlns="http://www.w3.org/2000/svg">
<path d="M20.245 8.98355C20.1718 8.76417 20.0622 8.54479 19.9525 8.32541L20.2084 6.09506L17.9049 3.79159L15.6746 4.04753C15.4552 3.93784 15.2358 3.86472 15.0165 3.75503L13.6271 2H10.3729L8.98355 3.75503C8.76417 3.82815 8.54479 3.93784 8.32541 4.04753L6.09506 3.79159L3.79159 6.09506L4.04753 8.32541C3.93784 8.54479 3.86472 8.76417 3.75503 8.98355L2 10.3729V13.6271L3.75503 15.0165C3.82815 15.2358 3.93784 15.4552 4.04753 15.6746L3.79159 17.9049L6.09506 20.2084L8.32541 19.9525C8.54479 20.0622 8.76417 20.1353 8.98355 20.245L10.3729 22H13.6271L15.0165 20.245C15.2358 20.1718 15.4552 20.0622 15.6746 19.9525L17.9049 20.2084L20.2084 17.9049L19.9525 15.6746C20.0622 15.4552 20.1353 15.2358 20.245 15.0165L22 13.6271V10.3729L20.245 8.98355ZM12.0183 18.0878C8.65448 18.0878 5.94881 15.3821 5.94881 12.0183C5.94881 8.65448 8.65448 5.94881 12.0183 5.94881C15.3821 5.94881 18.0878 8.65448 18.0878 12.0183C18.0878 15.3821 15.3821 18.0878 12.0183 18.0878Z" fill="black"/>
<path d="M12.0183 14.3217C13.2905 14.3217 14.3218 13.2904 14.3218 12.0183C14.3218 10.7461 13.2905 9.7148 12.0183 9.7148C10.7461 9.7148 9.71481 10.7461 9.71481 12.0183C9.71481 13.2904 10.7461 14.3217 12.0183 14.3217Z" fill="black"/>
</svg>
