<svg width="24" height="24" viewBox="0 0 24 24" fill="none" xmlns="http://www.w3.org/2000/svg">
<path d="M3.80381 4.86085C3.80381 3.8332 4.6368 3 5.66487 3C6.69272 3 7.52571 3.8332 7.52571 4.86085C7.52571 5.8887 6.69272 6.7219 5.66487 6.7219C4.6368 6.7219 3.80381 5.8885 3.80381 4.86085ZM2.56724 14.1467C2.65155 14.1578 2.73752 14.1506 2.81914 14.1258L2.25934 16.4593C2.21305 16.6845 2.35853 16.9044 2.58377 16.9505C2.60981 16.9556 2.63647 16.9585 2.66313 16.9589H4.31588L4.64032 20.587C4.67544 20.896 4.93727 21.1293 5.24806 21.1282H6.08064C6.39185 21.129 6.65346 20.896 6.68859 20.587L7.00476 16.961H8.67012C8.89991 16.9587 9.08465 16.7705 9.08238 16.5407C9.08196 16.5142 9.07928 16.4876 9.0739 16.4615L8.50997 14.1302C8.59139 14.1552 8.67756 14.1622 8.76187 14.151C9.11523 14.1049 9.36424 13.7809 9.31795 13.4276C9.31671 13.4174 9.31506 13.4075 9.31341 13.3974L8.14379 8.38499C8.00348 7.78055 7.50856 7.32262 6.89482 7.22984C6.78282 7.2131 4.55208 7.21392 4.4407 7.22984C3.82716 7.32283 3.33245 7.78055 3.19173 8.38499L2.0093 13.3972C1.94937 13.7487 2.18536 14.082 2.53666 14.1421C2.54699 14.1438 2.55712 14.1454 2.56724 14.1467ZM13.2101 6.72996C14.237 6.72996 15.0691 5.898 15.0691 4.87118C15.0691 3.84477 14.237 3.0124 13.2101 3.0124C12.1845 3.0124 11.3526 3.84332 11.3516 4.86911C11.3516 5.89614 12.1833 6.72893 13.2101 6.72996ZM10.3357 12.4086C10.3898 12.9159 10.7283 13.348 11.2079 13.5222L11.9781 20.5996C12.013 20.9077 12.2738 21.1406 12.584 21.1408H13.8036C14.1138 21.1408 14.3746 20.9079 14.4095 20.5996L15.1815 13.5222C15.6713 13.3571 16.0215 12.924 16.0809 12.4107L16.539 8.97C16.6367 8.10622 16.016 7.32696 15.1524 7.22922C15.0937 7.2226 15.0348 7.2193 14.9759 7.2193H11.4452C10.5773 7.21826 9.8728 7.92107 9.87176 8.78898C9.87156 8.84932 9.87507 8.90966 9.8821 8.97L10.3357 12.4086ZM19.5591 12.0443C20.3086 12.0443 20.9162 11.4365 20.9162 10.687C20.9162 9.93772 20.3086 9.32998 19.5591 9.32998C18.8102 9.32998 18.2031 9.93628 18.2019 10.685C18.2019 11.4349 18.8092 12.0432 19.5591 12.0443ZM17.4629 16.1908C17.5026 16.5554 17.7441 16.8668 18.0872 16.9961L18.6495 20.743C18.6749 20.9685 18.8658 21.139 19.0927 21.1386H19.9943C20.2212 21.139 20.4119 20.9685 20.4376 20.743L20.9996 17.0108C21.3571 16.8901 21.6124 16.5737 21.6555 16.1989L21.9926 13.6782C22.0641 13.0477 21.6107 12.4786 20.98 12.4076C20.9377 12.4028 20.8949 12.4003 20.8521 12.4003H18.2711C17.6363 12.4009 17.1224 12.9159 17.123 13.5503C17.1232 13.5933 17.1255 13.6361 17.1302 13.6782L17.4629 16.1908Z" fill="black"/>
</svg>
