<svg width="24" height="24" viewBox="0 0 24 24" fill="none" xmlns="http://www.w3.org/2000/svg">
<path d="M13.5311 11.6348C13.0627 11.6312 12.6218 11.4134 12.3345 11.0436C12.0469 10.6738 11.9444 10.1928 12.0565 9.738C12.1684 9.283 12.4821 8.90455 12.9084 8.71043C12.6147 8.61747 12.308 8.571 12 8.57259C11.1877 8.57259 10.409 8.89521 9.83454 9.46938C9.26036 10.0438 8.93774 10.8225 8.93774 11.6348C8.93774 12.4471 9.26036 13.2258 9.83454 13.8002C10.4089 14.3744 11.1877 14.697 12 14.697C12.8122 14.697 13.591 14.3744 14.1654 13.8002C14.7396 13.2258 15.0622 12.4471 15.0622 11.6348C15.0638 11.3268 15.0173 11.0201 14.9243 10.7264C14.8045 10.996 14.609 11.2252 14.3618 11.3862C14.1146 11.5475 13.8262 11.6337 13.5311 11.6348Z" fill="black"/>
<path d="M21.4165 10.2058C19.5026 8.25611 15.7514 5 12 5C8.24863 5 4.49784 8.25611 2.58351 10.2058C2.20939 10.5874 2 11.1005 2 11.6348C2 12.1691 2.20939 12.6822 2.58351 13.0639C4.49737 15.0135 8.24863 18.2696 12 18.2696C15.7514 18.2696 19.5022 15.0135 21.4165 13.0639C21.7906 12.6822 22 12.1691 22 11.6348C22 11.1005 21.7906 10.5874 21.4165 10.2058ZM12 16.2282C10.7817 16.2282 9.61333 15.7442 8.75206 14.8828C7.89055 14.0215 7.40666 12.8531 7.40666 11.6348C7.40666 10.4165 7.89061 9.24815 8.75206 8.38688C9.61333 7.52537 10.7817 7.04148 12 7.04148C13.2183 7.04148 14.3867 7.52543 15.2479 8.38688C16.1094 9.24815 16.5933 10.4165 16.5933 11.6348C16.5933 12.8531 16.1094 14.0215 15.2479 14.8828C14.3867 15.7443 13.2183 16.2282 12 16.2282Z" fill="black"/>
</svg>
