<svg width="24" height="24" viewBox="0 0 24 24" fill="none" xmlns="http://www.w3.org/2000/svg">
<path d="M5.25 10.316L12 5.3168L18.75 10.316V11.9824L13.1777 16.1133C12.8367 16.3664 12.4254 16.5 12 16.5C11.5746 16.5 11.1633 16.3629 10.8223 16.1133L5.25 11.9824V10.316ZM12 3C11.5746 3 11.1633 3.13711 10.8223 3.38672L3.91055 8.50898C3.3375 8.93437 3 9.60234 3 10.316V18.75C3 19.991 4.00898 21 5.25 21H18.75C19.991 21 21 19.991 21 18.75V10.316C21 9.60234 20.6625 8.93086 20.0895 8.50898L13.1777 3.38672C12.8367 3.13711 12.4254 3 12 3Z" fill="black"/>
</svg>
