<svg width="24" height="24" viewBox="0 0 24 24" fill="none" xmlns="http://www.w3.org/2000/svg">
<path d="M20.1985 10.145L18.8395 7.69875L18.8169 7.6761C18.2053 6.6342 17.0955 6 15.9177 6C14.4228 6 13.1544 6.97395 12.724 8.33296H11.3424C10.912 6.97395 9.64362 6 8.14872 6C6.94827 6 5.83841 6.6342 5.24951 7.6761L5.22686 7.69875L5.20421 7.7214L5.18156 7.74405L3.84521 10.145C2.73535 11.0057 2.0332 12.3647 2.0332 13.8822C2.0332 16.5096 4.16231 18.6387 6.78972 18.6387C9.05472 18.6387 10.9573 17.0306 11.433 14.9015H12.6334C13.1091 17.0306 15.0117 18.6387 17.2767 18.6387C19.9041 18.6387 22.0332 16.5096 22.0332 13.8822C22.0106 12.3647 21.3084 11.0283 20.1985 10.145ZM13.8565 13.8822C13.8565 12.0023 15.3741 10.4847 17.254 10.4847C19.134 10.4847 20.6515 12.0023 20.6515 13.8822C20.6515 15.7622 19.134 17.2797 17.254 17.2797C15.3741 17.2797 13.8565 15.7622 13.8565 13.8822ZM3.39221 13.8822C3.39221 12.0023 4.90976 10.4847 6.78972 10.4847C8.66967 10.4847 10.1872 12.0023 10.1872 13.8822C10.1872 15.7622 8.66967 17.2797 6.78972 17.2797C4.90976 17.2797 3.39221 15.7622 3.39221 13.8822Z" fill="black"/>
</svg>
